<svg preserveAspectRatio="none" overflow="visible" style="display: block;" width="86.3349" height="87.1701" viewBox="0 0 86.3349 87.1701" fill="none" xmlns="http://www.w3.org/2000/svg">
<g id="Group 51176">
<path id="Vector" d="M3.8147e-05 0H86.3349V87.1701H3.8147e-05V0Z" fill="#0F0F0F" fill-opacity="0.08"/>
<path id="Vector_2" d="M25.5122 21.6997C25.882 21.6997 26.2517 21.5142 26.6215 21.5142C28.4702 21.5142 30.3189 21.5142 32.1676 21.6997C32.5374 21.6997 32.5374 21.8852 32.7222 22.0706C35.4953 27.8201 38.2684 33.7551 41.2263 39.6901C41.7809 40.9884 42.3355 42.1012 43.075 43.214C43.6296 42.2867 44.1843 41.3593 44.7389 40.2465C47.8817 33.9406 51.0245 27.8201 54.1673 21.5142C56.2009 21.5142 58.2345 21.3288 60.4529 21.6997C60.0832 22.998 59.3437 23.9253 58.7891 25.0381C54.7219 33.0133 50.4699 40.9884 46.2178 48.9635C46.033 49.3345 46.033 49.5199 46.033 49.8909C46.033 55.6404 46.033 61.3899 46.033 66.9539C43.9994 66.9539 41.9658 66.9539 39.9322 66.9539C39.9322 61.3899 39.9322 55.8259 39.9322 50.2618C39.9322 49.7054 39.9322 48.9635 39.5625 48.4071C35.6802 41.1739 31.9827 33.9406 28.1004 26.5219C27.361 25.0381 26.4366 23.3689 25.5122 21.6997Z" fill="#0F0F0F"/>
</g>
</svg>
