<svg width="616" height="364" viewBox="0 0 616 364" fill="none" xmlns="http://www.w3.org/2000/svg">
<path d="M218 24C227.941 24 236 32.0589 236 42V66C236 75.9411 227.941 84 218 84H194C184.059 84 176 75.9411 176 66V42C176 32.0589 184.059 24 194 24H218ZM206 38.7715C203.651 38.7715 201.367 39.5423 199.499 40.9658C197.631 42.3894 196.282 44.387 195.659 46.6514C195.036 48.9158 195.174 51.3223 196.051 53.501C196.777 55.3047 197.977 56.8691 199.514 58.0361C196.002 59.463 193.012 62.0468 191.008 65.5117C190.857 65.7737 190.777 66.0715 190.776 66.374C190.776 66.6766 190.856 66.9742 191.007 67.2363C191.158 67.4985 191.376 67.7166 191.638 67.8682C191.9 68.0196 192.197 68.0993 192.499 68.0996H219.5C219.803 68.0996 220.1 68.0204 220.362 67.8691C220.625 67.7177 220.843 67.4996 220.994 67.2373C221.145 66.975 221.225 66.6767 221.225 66.374C221.224 66.0712 221.144 65.7738 220.992 65.5117C218.988 62.0462 215.996 59.463 212.484 58.0361C214.022 56.869 215.223 55.3052 215.949 53.501C216.826 51.3223 216.964 48.9158 216.341 46.6514C215.718 44.3868 214.368 42.3894 212.5 40.9658C210.632 39.5424 208.349 38.7715 206 38.7715ZM199.863 41.4424C199.961 41.368 200.06 41.2962 200.16 41.2256L199.863 41.4424Z" fill="url(#paint0_linear_1_981)"/>
<mask id="mask0_1_981" style="mask-type:luminance" maskUnits="userSpaceOnUse" x="175" y="23" width="62" height="62">
<path d="M237 23H175V85H237V23Z" fill="white"/>
<path d="M218 24C227.941 24 236 32.0589 236 42V66C236 75.9411 227.941 84 218 84H194C184.059 84 176 75.9411 176 66V42C176 32.0589 184.059 24 194 24H218ZM206 38.7715C203.651 38.7715 201.367 39.5423 199.499 40.9658C197.631 42.3894 196.282 44.387 195.659 46.6514C195.036 48.9158 195.174 51.3223 196.051 53.501C196.777 55.3047 197.977 56.8691 199.514 58.0361C196.002 59.463 193.012 62.0468 191.008 65.5117C190.857 65.7737 190.777 66.0715 190.776 66.374C190.776 66.6766 190.856 66.9742 191.007 67.2363C191.158 67.4985 191.376 67.7166 191.638 67.8682C191.9 68.0196 192.197 68.0993 192.499 68.0996H219.5C219.803 68.0996 220.1 68.0204 220.362 67.8691C220.625 67.7177 220.843 67.4996 220.994 67.2373C221.145 66.975 221.225 66.6767 221.225 66.374C221.224 66.0712 221.144 65.7738 220.992 65.5117C218.988 62.0462 215.996 59.463 212.484 58.0361C214.022 56.869 215.223 55.3052 215.949 53.501C216.826 51.3223 216.964 48.9158 216.341 46.6514C215.718 44.3868 214.368 42.3894 212.5 40.9658C210.632 39.5424 208.349 38.7715 206 38.7715ZM199.863 41.4424C199.961 41.368 200.06 41.2962 200.16 41.2256L199.863 41.4424Z" fill="black"/>
</mask>
<g mask="url(#mask0_1_981)">
<path d="M199.514 58.036L199.74 58.5919L200.715 58.1953L199.877 57.5582L199.514 58.036ZM220.994 67.2372L221.514 67.5372L221.594 67.398V67.2372H220.994ZM220.994 67.2372L220.474 66.937L220.394 67.0759V67.2362L220.994 67.2372ZM212.484 58.036L212.122 57.5582L211.282 58.1953L212.259 58.5919L212.484 58.036ZM199.863 41.4423L199.5 40.965L200.217 41.9268L199.863 41.4423ZM200.16 41.2255L200.514 41.71L199.814 40.7354L200.16 41.2255ZM200.256 41.1591L199.915 40.6651L200.596 41.6531L200.256 41.1591ZM200.484 41.0058L200.812 41.5086L200.157 40.5027L200.484 41.0058ZM200.577 40.9452L200.255 40.4388L200.899 41.4518L200.577 40.9452ZM200.895 40.7519L201.197 41.27L200.592 40.2337L200.895 40.7519ZM218 23.9999V24.5999C227.61 24.5999 235.4 32.3901 235.4 41.9999H236H236.6C236.6 31.7274 228.272 23.3999 218 23.3999V23.9999ZM236 41.9999H235.4V65.9999H236H236.6V41.9999H236ZM236 65.9999H235.4C235.4 75.6097 227.61 83.3999 218 83.3999V83.9999V84.5999C228.272 84.5999 236.6 76.2724 236.6 65.9999H236ZM218 83.9999V83.3999H194V83.9999V84.5999H218V83.9999ZM194 83.9999V83.3999C184.39 83.3999 176.6 75.6097 176.6 65.9999H176H175.4C175.4 76.2724 183.728 84.5999 194 84.5999V83.9999ZM176 65.9999H176.6V41.9999H176H175.4V65.9999H176ZM176 41.9999H176.6C176.6 32.3901 184.39 24.5999 194 24.5999V23.9999V23.3999C183.728 23.3999 175.4 31.7274 175.4 41.9999H176ZM194 23.9999V24.5999H218V23.9999V23.3999H194V23.9999ZM206 38.7714V38.1714C203.52 38.1714 201.108 38.9853 199.135 40.4885L199.499 40.9657L199.863 41.4423C201.626 40.0984 203.783 39.3714 206 39.3714V38.7714ZM199.499 40.9657L199.135 40.4885C197.163 41.9917 195.739 44.1011 195.081 46.4921L195.659 46.6513L196.238 46.8104C196.826 44.6726 198.099 42.7862 199.863 41.4423L199.499 40.9657ZM195.659 46.6513L195.081 46.4921C194.423 48.8833 194.568 51.4243 195.494 53.7249L196.051 53.5009L196.607 53.2768C195.779 51.22 195.65 48.9482 196.238 46.8104L195.659 46.6513ZM196.051 53.5009L195.494 53.7249C196.261 55.6298 197.528 57.2816 199.151 58.5138L199.514 58.036L199.877 57.5582C198.426 56.4563 197.293 54.9795 196.607 53.2768L196.051 53.5009ZM199.514 58.036L199.288 57.4802C195.651 58.9581 192.558 61.6328 190.488 65.2112L191.008 65.5116L191.527 65.8121C193.466 62.4605 196.354 59.9678 199.74 58.5919L199.514 58.036ZM191.008 65.5116L190.488 65.2112C190.284 65.5641 190.177 65.9657 190.176 66.3736L190.776 66.3739L191.376 66.3742C191.376 66.1772 191.429 65.9831 191.527 65.8121L191.008 65.5116ZM190.776 66.3739L190.176 66.3736C190.176 66.7812 190.283 67.1824 190.487 67.5359L191.007 67.2362L191.527 66.9365C191.428 66.7658 191.376 66.5718 191.376 66.3742L190.776 66.3739ZM191.007 67.2362L190.487 67.5359C190.691 67.8891 190.984 68.1831 191.337 68.3874L191.638 67.8681L191.938 67.3487C191.767 67.2499 191.625 67.1076 191.527 66.9365L191.007 67.2362ZM191.638 67.8681L191.337 68.3874C191.691 68.5915 192.091 68.699 192.498 68.6995L192.499 68.0995L192.5 67.4995C192.302 67.4993 192.109 67.4474 191.938 67.3487L191.638 67.8681ZM192.499 68.0995L192.498 68.6995H219.5V68.0995V67.4995H192.499V68.0995ZM219.5 68.0995V68.6995C219.907 68.6995 220.308 68.5929 220.662 68.3887L220.362 67.869L220.062 67.3494C219.892 67.4477 219.698 67.4995 219.5 67.4995V68.0995ZM220.362 67.869L220.662 68.3887C221.016 68.1846 221.31 67.8907 221.514 67.5372L220.994 67.2372L220.475 66.9372C220.376 67.1083 220.233 67.2507 220.062 67.3494L220.362 67.869ZM220.994 67.2372L221.514 67.5355C221.717 67.1826 221.825 66.782 221.825 66.3732L221.225 66.3739L220.625 66.3747C220.625 66.5712 220.573 66.7651 220.474 66.937L220.994 67.2372ZM221.225 66.3739L221.825 66.3732C221.824 65.9648 221.716 65.5639 221.511 65.211L220.992 65.5116L220.473 65.812C220.572 65.9831 220.624 66.1775 220.625 66.3747L221.225 66.3739ZM220.992 65.5116L221.512 65.2112C219.441 61.6322 216.348 58.958 212.71 57.4802L212.484 58.036L212.259 58.5919C215.645 59.9677 218.534 62.4601 220.473 65.812L220.992 65.5116ZM212.484 58.036L212.847 58.5139C214.47 57.2817 215.739 55.6305 216.506 53.7249L215.949 53.5009L215.393 53.2768C214.707 54.9797 213.573 56.456 212.122 57.5582L212.484 58.036ZM215.949 53.5009L216.506 53.7249C217.432 51.4243 217.577 48.8832 216.919 46.4921L216.341 46.6513L215.762 46.8104C216.35 48.9482 216.221 51.22 215.393 53.2768L215.949 53.5009ZM216.341 46.6513L216.919 46.4921C216.261 44.1008 214.836 41.9916 212.864 40.4885L212.5 40.9657L212.136 41.443C213.9 42.7869 215.174 44.6727 215.762 46.8104L216.341 46.6513ZM212.5 40.9657L212.864 40.4885C210.891 38.9854 208.48 38.1714 206 38.1714V38.7714V39.3714C208.217 39.3714 210.373 40.0991 212.136 41.443L212.5 40.9657ZM199.863 41.4423L200.227 41.9195C200.317 41.8511 200.41 41.7838 200.506 41.7155L200.16 41.2255L199.814 40.7354C199.711 40.8084 199.605 40.8848 199.5 40.965L199.863 41.4423ZM200.16 41.2255L199.806 40.7409L199.509 40.9577L199.863 41.4423L200.217 41.9268L200.514 41.71L200.16 41.2255ZM200.256 41.1591L200.596 41.6531C200.669 41.6033 200.74 41.5552 200.811 41.5088L200.484 41.0058L200.157 40.5027C200.075 40.5562 199.994 40.6106 199.915 40.6651L200.256 41.1591ZM200.484 41.0058L200.157 40.5027C200.075 40.556 199.995 40.6104 199.915 40.6651L200.256 41.1591L200.596 41.6531C200.668 41.6035 200.74 41.5553 200.812 41.5086L200.484 41.0058ZM200.577 40.9452L200.899 41.4518C200.997 41.3892 201.097 41.3285 201.197 41.27L200.895 40.7519L200.592 40.2337C200.478 40.3 200.366 40.3684 200.256 40.4386L200.577 40.9452ZM200.895 40.7519L200.592 40.2337C200.479 40.2998 200.366 40.3682 200.255 40.4388L200.577 40.9452L200.899 41.4518C200.997 41.3892 201.097 41.3285 201.197 41.27L200.895 40.7519Z" fill="white" fill-opacity="0.7"/>
</g>
<path d="M422 24C431.941 24 440 32.0589 440 42V66C440 75.9411 431.941 84 422 84H398C388.059 84 380 75.9411 380 66V42C380 32.0589 388.059 24 398 24H422ZM410 38.7715C407.651 38.7715 405.367 39.5423 403.499 40.9658C401.631 42.3894 400.282 44.387 399.659 46.6514C399.036 48.9158 399.174 51.3223 400.051 53.501C400.777 55.3047 401.977 56.8691 403.514 58.0361C400.002 59.463 397.012 62.0468 395.008 65.5117C394.857 65.7737 394.777 66.0715 394.776 66.374C394.776 66.6766 394.856 66.9742 395.007 67.2363C395.158 67.4985 395.376 67.7166 395.638 67.8682C395.9 68.0196 396.197 68.0993 396.499 68.0996H423.5C423.803 68.0996 424.1 68.0204 424.362 67.8691C424.625 67.7177 424.843 67.4996 424.994 67.2373C425.145 66.975 425.225 66.6767 425.225 66.374C425.224 66.0712 425.144 65.7738 424.992 65.5117C422.988 62.0462 419.996 59.463 416.484 58.0361C418.022 56.869 419.223 55.3052 419.949 53.501C420.826 51.3223 420.964 48.9158 420.341 46.6514C419.718 44.3868 418.368 42.3894 416.5 40.9658C414.632 39.5424 412.349 38.7715 410 38.7715ZM403.863 41.4424C403.961 41.368 404.06 41.2962 404.16 41.2256L403.863 41.4424Z" fill="url(#paint1_linear_1_981)"/>
<mask id="mask1_1_981" style="mask-type:luminance" maskUnits="userSpaceOnUse" x="379" y="23" width="62" height="62">
<path d="M441 23H379V85H441V23Z" fill="white"/>
<path d="M422 24C431.941 24 440 32.0589 440 42V66C440 75.9411 431.941 84 422 84H398C388.059 84 380 75.9411 380 66V42C380 32.0589 388.059 24 398 24H422ZM410 38.7715C407.651 38.7715 405.367 39.5423 403.499 40.9658C401.631 42.3894 400.282 44.387 399.659 46.6514C399.036 48.9158 399.174 51.3223 400.051 53.501C400.777 55.3047 401.977 56.8691 403.514 58.0361C400.002 59.463 397.012 62.0468 395.008 65.5117C394.857 65.7737 394.777 66.0715 394.776 66.374C394.776 66.6766 394.856 66.9742 395.007 67.2363C395.158 67.4985 395.376 67.7166 395.638 67.8682C395.9 68.0196 396.197 68.0993 396.499 68.0996H423.5C423.803 68.0996 424.1 68.0204 424.362 67.8691C424.625 67.7177 424.843 67.4996 424.994 67.2373C425.145 66.975 425.225 66.6767 425.225 66.374C425.224 66.0712 425.144 65.7738 424.992 65.5117C422.988 62.0462 419.996 59.463 416.484 58.0361C418.022 56.869 419.223 55.3052 419.949 53.501C420.826 51.3223 420.964 48.9158 420.341 46.6514C419.718 44.3868 418.368 42.3894 416.5 40.9658C414.632 39.5424 412.349 38.7715 410 38.7715ZM403.863 41.4424C403.961 41.368 404.06 41.2962 404.16 41.2256L403.863 41.4424Z" fill="black"/>
</mask>
<g mask="url(#mask1_1_981)">
<path d="M403.514 58.036L403.74 58.5919L404.715 58.1953L403.877 57.5582L403.514 58.036ZM396.499 68.0995L396.498 68.6995H396.499V68.0995ZM424.994 67.2372L425.514 67.5372L425.594 67.398V67.2372H424.994ZM424.994 67.2372L424.474 66.937L424.394 67.0759V67.2362L424.994 67.2372ZM416.484 58.036L416.122 57.5582L415.282 58.1953L416.259 58.5919L416.484 58.036ZM403.863 41.4423L403.5 40.965L404.217 41.9268L403.863 41.4423ZM404.16 41.2255L404.514 41.71L403.814 40.7354L404.16 41.2255ZM404.256 41.1591L403.915 40.6651L404.596 41.6531L404.256 41.1591ZM404.484 41.0058L404.812 41.5086L404.157 40.5027L404.484 41.0058ZM404.577 40.9452L404.255 40.4388L404.899 41.4518L404.577 40.9452ZM404.895 40.7519L405.197 41.27L404.592 40.2337L404.895 40.7519ZM422 23.9999V24.5999C431.61 24.5999 439.4 32.3901 439.4 41.9999H440H440.6C440.6 31.7274 432.272 23.3999 422 23.3999V23.9999ZM440 41.9999H439.4V65.9999H440H440.6V41.9999H440ZM440 65.9999H439.4C439.4 75.6097 431.61 83.3999 422 83.3999V83.9999V84.5999C432.272 84.5999 440.6 76.2724 440.6 65.9999H440ZM422 83.9999V83.3999H398V83.9999V84.5999H422V83.9999ZM398 83.9999V83.3999C388.39 83.3999 380.6 75.6097 380.6 65.9999H380H379.4C379.4 76.2724 387.728 84.5999 398 84.5999V83.9999ZM380 65.9999H380.6V41.9999H380H379.4V65.9999H380ZM380 41.9999H380.6C380.6 32.3901 388.39 24.5999 398 24.5999V23.9999V23.3999C387.728 23.3999 379.4 31.7274 379.4 41.9999H380ZM398 23.9999V24.5999H422V23.9999V23.3999H398V23.9999ZM410 38.7714V38.1714C407.52 38.1714 405.108 38.9853 403.135 40.4885L403.499 40.9657L403.863 41.4423C405.626 40.0984 407.783 39.3714 410 39.3714V38.7714ZM403.499 40.9657L403.135 40.4885C401.163 41.9917 399.739 44.1011 399.081 46.4921L399.659 46.6513L400.238 46.8104C400.826 44.6726 402.099 42.7862 403.863 41.4423L403.499 40.9657ZM399.659 46.6513L399.081 46.4921C398.423 48.8833 398.568 51.4243 399.494 53.7249L400.051 53.5009L400.607 53.2768C399.779 51.22 399.65 48.9482 400.238 46.8104L399.659 46.6513ZM400.051 53.5009L399.494 53.7249C400.261 55.6298 401.528 57.2816 403.151 58.5138L403.514 58.036L403.877 57.5582C402.426 56.4563 401.293 54.9795 400.607 53.2768L400.051 53.5009ZM403.514 58.036L403.288 57.4802C399.651 58.9581 396.558 61.6328 394.488 65.2112L395.008 65.5116L395.527 65.8121C397.466 62.4605 400.354 59.9678 403.74 58.5919L403.514 58.036ZM395.008 65.5116L394.488 65.2112C394.284 65.5641 394.177 65.9657 394.176 66.3736L394.776 66.3739L395.376 66.3742C395.376 66.1772 395.429 65.9831 395.527 65.8121L395.008 65.5116ZM394.776 66.3739L394.176 66.3736C394.176 66.7812 394.283 67.1824 394.487 67.5359L395.007 67.2362L395.527 66.9365C395.428 66.7658 395.376 66.5718 395.376 66.3742L394.776 66.3739ZM395.007 67.2362L394.487 67.5359C394.691 67.8891 394.984 68.1831 395.337 68.3874L395.638 67.8681L395.938 67.3487C395.767 67.2499 395.625 67.1076 395.527 66.9365L395.007 67.2362ZM395.638 67.8681L395.337 68.3874C395.691 68.5915 396.091 68.699 396.498 68.6995L396.499 68.0995L396.5 67.4995C396.302 67.4993 396.109 67.4474 395.938 67.3487L395.638 67.8681ZM396.499 68.0995V68.6995H423.5V68.0995V67.4995H396.499V68.0995ZM423.5 68.0995V68.6995C423.907 68.6995 424.308 68.5929 424.662 68.3887L424.362 67.869L424.062 67.3494C423.892 67.4477 423.698 67.4995 423.5 67.4995V68.0995ZM424.362 67.869L424.662 68.3887C425.016 68.1846 425.31 67.8907 425.514 67.5372L424.994 67.2372L424.475 66.9372C424.376 67.1083 424.233 67.2507 424.062 67.3494L424.362 67.869ZM424.994 67.2372L425.514 67.5355C425.717 67.1826 425.825 66.782 425.825 66.3732L425.225 66.3739L424.625 66.3747C424.625 66.5712 424.573 66.7651 424.474 66.937L424.994 67.2372ZM425.225 66.3739L425.825 66.3732C425.824 65.9648 425.716 65.5639 425.511 65.211L424.992 65.5116L424.473 65.812C424.572 65.9831 424.624 66.1775 424.625 66.3747L425.225 66.3739ZM424.992 65.5116L425.512 65.2112C423.441 61.6322 420.348 58.958 416.71 57.4802L416.484 58.036L416.259 58.5919C419.645 59.9677 422.534 62.4601 424.473 65.812L424.992 65.5116ZM416.484 58.036L416.847 58.5139C418.47 57.2817 419.739 55.6305 420.506 53.7249L419.949 53.5009L419.393 53.2768C418.707 54.9797 417.573 56.456 416.122 57.5582L416.484 58.036ZM419.949 53.5009L420.506 53.7249C421.432 51.4243 421.577 48.8832 420.919 46.4921L420.341 46.6513L419.762 46.8104C420.35 48.9482 420.221 51.22 419.393 53.2768L419.949 53.5009ZM420.341 46.6513L420.919 46.4921C420.261 44.1008 418.836 41.9916 416.864 40.4885L416.5 40.9657L416.136 41.443C417.9 42.7869 419.174 44.6727 419.762 46.8104L420.341 46.6513ZM416.5 40.9657L416.864 40.4885C414.891 38.9854 412.48 38.1714 410 38.1714V38.7714V39.3714C412.217 39.3714 414.373 40.0991 416.136 41.443L416.5 40.9657ZM403.863 41.4423L404.227 41.9195C404.317 41.8511 404.41 41.7838 404.506 41.7155L404.16 41.2255L403.814 40.7354C403.711 40.8084 403.605 40.8848 403.5 40.965L403.863 41.4423ZM404.16 41.2255L403.806 40.7409L403.509 40.9577L403.863 41.4423L404.217 41.9268L404.514 41.71L404.16 41.2255ZM404.256 41.1591L404.596 41.6531C404.669 41.6033 404.74 41.5552 404.811 41.5088L404.484 41.0058L404.157 40.5027C404.075 40.5562 403.994 40.6106 403.915 40.6651L404.256 41.1591ZM404.484 41.0058L404.157 40.5027C404.075 40.556 403.995 40.6104 403.915 40.6651L404.256 41.1591L404.596 41.6531C404.668 41.6035 404.74 41.5553 404.812 41.5086L404.484 41.0058ZM404.577 40.9452L404.899 41.4518C404.997 41.3892 405.097 41.3285 405.197 41.27L404.895 40.7519L404.592 40.2337C404.478 40.3 404.366 40.3684 404.256 40.4386L404.577 40.9452ZM404.895 40.7519L404.592 40.2337C404.479 40.2998 404.366 40.3682 404.255 40.4388L404.577 40.9452L404.899 41.4518C404.997 41.3892 405.097 41.3285 405.197 41.27L404.895 40.7519Z" fill="white" fill-opacity="0.7"/>
</g>
<path d="M138 146C147.941 146 156 154.059 156 164V188C156 197.941 147.941 206 138 206H114C104.059 206 96 197.941 96 188V164C96 154.059 104.059 146 114 146H138ZM126 160.771C123.651 160.771 121.367 161.542 119.499 162.966C117.631 164.389 116.282 166.387 115.659 168.651C115.036 170.916 115.174 173.322 116.051 175.501C116.777 177.305 117.977 178.869 119.514 180.036C116.002 181.463 113.012 184.047 111.008 187.512C110.857 187.774 110.777 188.072 110.776 188.374C110.776 188.677 110.856 188.974 111.007 189.236C111.158 189.499 111.376 189.717 111.638 189.868C111.9 190.02 112.197 190.099 112.499 190.1H139.5C139.803 190.1 140.1 190.02 140.362 189.869C140.625 189.718 140.843 189.5 140.994 189.237V189.236C141.145 188.974 141.225 188.677 141.225 188.374C141.224 188.071 141.144 187.774 140.992 187.512C138.988 184.046 135.996 181.463 132.484 180.036C134.022 178.869 135.223 177.305 135.949 175.501C136.826 173.322 136.964 170.916 136.341 168.651C135.718 166.387 134.368 164.389 132.5 162.966C130.632 161.542 128.349 160.772 126 160.771ZM119.863 163.442C119.961 163.368 120.06 163.296 120.16 163.226L119.863 163.442Z" fill="url(#paint2_linear_1_981)"/>
<mask id="mask2_1_981" style="mask-type:luminance" maskUnits="userSpaceOnUse" x="95" y="145" width="62" height="62">
<path d="M157 145H95V207H157V145Z" fill="white"/>
<path d="M138 146C147.941 146 156 154.059 156 164V188C156 197.941 147.941 206 138 206H114C104.059 206 96 197.941 96 188V164C96 154.059 104.059 146 114 146H138ZM126 160.771C123.651 160.771 121.367 161.542 119.499 162.966C117.631 164.389 116.282 166.387 115.659 168.651C115.036 170.916 115.174 173.322 116.051 175.501C116.777 177.305 117.977 178.869 119.514 180.036C116.002 181.463 113.012 184.047 111.008 187.512C110.857 187.774 110.777 188.072 110.776 188.374C110.776 188.677 110.856 188.974 111.007 189.236C111.158 189.499 111.376 189.717 111.638 189.868C111.9 190.02 112.197 190.099 112.499 190.1H139.5C139.803 190.1 140.1 190.02 140.362 189.869C140.625 189.718 140.843 189.5 140.994 189.237V189.236C141.145 188.974 141.225 188.677 141.225 188.374C141.224 188.071 141.144 187.774 140.992 187.512C138.988 184.046 135.996 181.463 132.484 180.036C134.022 178.869 135.223 177.305 135.949 175.501C136.826 173.322 136.964 170.916 136.341 168.651C135.718 166.387 134.368 164.389 132.5 162.966C130.632 161.542 128.349 160.772 126 160.771ZM119.863 163.442C119.961 163.368 120.06 163.296 120.16 163.226L119.863 163.442Z" fill="black"/>
</mask>
<g mask="url(#mask2_1_981)">
<path d="M119.514 180.036L119.74 180.592L120.715 180.195L119.877 179.558L119.514 180.036ZM111.008 187.512L110.488 187.211V187.212L111.008 187.512ZM140.994 189.237L141.514 189.537L141.594 189.398V189.237H140.994ZM140.994 189.236L140.474 188.937L140.394 189.076V189.236H140.994ZM132.484 180.036L132.122 179.558L131.282 180.195L132.259 180.592L132.484 180.036ZM119.863 163.442L119.5 162.965L120.217 163.927L119.863 163.442ZM120.16 163.226L120.514 163.71L119.814 162.736L120.16 163.226ZM120.256 163.159L119.915 162.665L120.596 163.653L120.256 163.159ZM120.484 163.006L120.812 163.509L120.157 162.503L120.484 163.006ZM120.577 162.945L120.255 162.439L120.899 163.452L120.577 162.945ZM120.895 162.752L121.197 163.27L120.592 162.234L120.895 162.752ZM138 146V146.6C147.61 146.6 155.4 154.39 155.4 164H156H156.6C156.6 153.728 148.272 145.4 138 145.4V146ZM156 164H155.4V188H156H156.6V164H156ZM156 188H155.4C155.4 197.61 147.61 205.4 138 205.4V206V206.6C148.272 206.6 156.6 198.272 156.6 188H156ZM138 206V205.4H114V206V206.6H138V206ZM114 206V205.4C104.39 205.4 96.6 197.61 96.6 188H96H95.4C95.4 198.272 103.728 206.6 114 206.6V206ZM96 188H96.6V164H96H95.4V188H96ZM96 164H96.6C96.6 154.39 104.39 146.6 114 146.6V146V145.4C103.728 145.4 95.4 153.728 95.4 164H96ZM114 146V146.6H138V146V145.4H114V146ZM126 160.771V160.171C123.52 160.171 121.108 160.985 119.135 162.489L119.499 162.966L119.863 163.442C121.626 162.098 123.783 161.371 126 161.371V160.771ZM119.499 162.966L119.135 162.489C117.163 163.992 115.739 166.101 115.081 168.492L115.659 168.651L116.238 168.811C116.826 166.673 118.099 164.786 119.863 163.442L119.499 162.966ZM115.659 168.651L115.081 168.492C114.423 170.883 114.568 173.424 115.494 175.725L116.051 175.501L116.607 175.277C115.779 173.22 115.65 170.948 116.238 168.811L115.659 168.651ZM116.051 175.501L115.494 175.725C116.261 177.63 117.528 179.282 119.151 180.514L119.514 180.036L119.877 179.558C118.426 178.456 117.293 176.98 116.607 175.277L116.051 175.501ZM119.514 180.036L119.288 179.48C115.651 180.958 112.558 183.633 110.488 187.211L111.008 187.512L111.527 187.812C113.466 184.461 116.354 181.968 119.74 180.592L119.514 180.036ZM111.008 187.512L110.488 187.212C110.284 187.565 110.177 187.966 110.176 188.374H110.776H111.376C111.376 188.177 111.429 187.983 111.527 187.812L111.008 187.512ZM110.776 188.374H110.176C110.176 188.781 110.283 189.182 110.487 189.536L111.007 189.236L111.527 188.937C111.428 188.766 111.376 188.572 111.376 188.374H110.776ZM111.007 189.236L110.487 189.536C110.691 189.889 110.984 190.183 111.337 190.388L111.638 189.868L111.938 189.349C111.767 189.25 111.625 189.108 111.527 188.937L111.007 189.236ZM111.638 189.868L111.337 190.388C111.691 190.592 112.091 190.699 112.498 190.7L112.499 190.1L112.5 189.5C112.302 189.499 112.109 189.447 111.938 189.349L111.638 189.868ZM112.499 190.1L112.498 190.7H139.5V190.1V189.5H112.5L112.499 190.1ZM139.5 190.1V190.7C139.907 190.7 140.308 190.593 140.662 190.389L140.362 189.869L140.062 189.349C139.892 189.448 139.698 189.5 139.5 189.5V190.1ZM140.362 189.869L140.662 190.389C141.016 190.185 141.31 189.891 141.514 189.537L140.994 189.237L140.475 188.937C140.376 189.108 140.233 189.251 140.062 189.349L140.362 189.869ZM140.994 189.237H141.594V189.236H140.994H140.394V189.237H140.994ZM140.994 189.236L141.514 189.536C141.717 189.183 141.825 188.782 141.825 188.373L141.225 188.374L140.625 188.375C140.625 188.571 140.573 188.765 140.474 188.937L140.994 189.236ZM141.225 188.374L141.825 188.373C141.824 187.965 141.716 187.564 141.511 187.211L140.992 187.512L140.473 187.812C140.572 187.984 140.624 188.178 140.625 188.375L141.225 188.374ZM140.992 187.512L141.511 187.211C139.44 183.632 136.348 180.958 132.71 179.48L132.484 180.036L132.259 180.592C135.645 181.968 138.534 184.46 140.473 187.812L140.992 187.512ZM132.484 180.036L132.847 180.514C134.47 179.282 135.739 177.631 136.506 175.725L135.949 175.501L135.393 175.277C134.707 176.98 133.573 178.456 132.122 179.558L132.484 180.036ZM135.949 175.501L136.506 175.725C137.432 173.424 137.577 170.883 136.919 168.492L136.341 168.651L135.762 168.811C136.35 170.948 136.221 173.22 135.393 175.277L135.949 175.501ZM136.341 168.651L136.919 168.492C136.261 166.101 134.836 163.992 132.864 162.489L132.5 162.966L132.136 163.443C133.9 164.787 135.174 166.673 135.762 168.811L136.341 168.651ZM132.5 162.966L132.864 162.489C130.891 160.985 128.48 160.172 126 160.171V160.771V161.371C128.217 161.372 130.373 162.099 132.136 163.443L132.5 162.966ZM119.863 163.442L120.227 163.92C120.317 163.851 120.41 163.784 120.506 163.716L120.16 163.226L119.814 162.736C119.711 162.809 119.605 162.885 119.5 162.965L119.863 163.442ZM120.16 163.226L119.806 162.741L119.509 162.958L119.863 163.442L120.217 163.927L120.514 163.71L120.16 163.226ZM120.256 163.159L120.596 163.653C120.669 163.603 120.741 163.555 120.812 163.509L120.484 163.006L120.157 162.503C120.075 162.556 119.994 162.611 119.915 162.665L120.256 163.159ZM120.484 163.006L120.157 162.503C120.075 162.556 119.995 162.61 119.915 162.665L120.256 163.159L120.596 163.653C120.668 163.604 120.74 163.555 120.812 163.509L120.484 163.006ZM120.577 162.945L120.899 163.452C120.997 163.389 121.097 163.329 121.197 163.27L120.895 162.752L120.592 162.234C120.478 162.3 120.365 162.368 120.255 162.439L120.577 162.945ZM120.895 162.752L120.592 162.234C120.479 162.3 120.366 162.368 120.255 162.439L120.577 162.945L120.899 163.452C120.997 163.389 121.097 163.329 121.197 163.27L120.895 162.752Z" fill="white" fill-opacity="0.7"/>
</g>
<g filter="url(#filter0_d_1_981)">
<path d="M364 204.959C364 219.893 351.894 231.999 336.96 231.999H295.271C280.125 231.999 272.552 231.998 266.767 229.051C261.678 226.458 257.54 222.321 254.947 217.232C252 211.447 252 203.874 252 188.729V147.039C252 132.105 264.106 119.999 279.04 119.999H336.96C351.894 119.999 364 132.105 364 147.039V204.959ZM297.929 178.07C293.487 178.071 289.897 181.664 289.897 186.109V206.205C289.897 210.651 293.487 214.244 297.929 214.244C302.371 214.244 305.961 210.651 305.961 206.205V186.109C305.961 181.664 302.371 178.07 297.929 178.07ZM318.071 198.167C313.635 198.167 310.039 201.769 310.039 206.205C310.039 210.651 313.629 214.244 318.071 214.244C322.513 214.244 326.103 210.65 326.103 206.205C326.102 201.76 322.513 198.167 318.071 198.167ZM277.849 178.07C273.407 178.07 269.816 181.664 269.816 186.109C269.817 190.555 273.407 194.147 277.849 194.147C282.29 194.147 285.881 190.555 285.881 186.109C285.881 181.673 282.285 178.07 277.849 178.07ZM318.071 178.07C313.629 178.07 310.039 181.664 310.039 186.109C310.039 190.555 313.629 194.147 318.071 194.147H338.212C342.654 194.147 346.244 190.555 346.244 186.109C346.244 181.664 342.654 178.07 338.212 178.07H318.071ZM277.788 157.913C273.346 157.913 269.756 161.507 269.756 165.952C269.756 170.398 273.346 173.99 277.788 173.99H297.93C302.371 173.99 305.961 170.397 305.961 165.952C305.961 161.507 302.372 157.913 297.93 157.913H277.788ZM318.071 137.756C313.629 137.756 310.039 141.349 310.039 145.795V165.952C310.039 170.398 313.629 173.99 318.071 173.99C322.513 173.99 326.102 170.397 326.103 165.952V145.795C326.103 141.35 322.513 137.756 318.071 137.756ZM338.151 157.913C333.709 157.913 330.119 161.507 330.119 165.952C330.119 170.388 333.715 173.99 338.151 173.99C342.593 173.99 346.183 170.397 346.184 165.952C346.184 161.507 342.593 157.913 338.151 157.913ZM297.93 137.756C293.488 137.756 289.897 141.349 289.897 145.795C289.898 150.24 293.488 153.833 297.93 153.833C302.365 153.833 305.961 150.23 305.961 145.795C305.961 141.349 302.372 137.756 297.93 137.756Z" fill="white" fill-opacity="0.8"/>
</g>
<path d="M502 146C511.941 146 520 154.059 520 164V188C520 197.941 511.941 206 502 206H478C468.059 206 460 197.941 460 188V164C460 154.059 468.059 146 478 146H502ZM490 160.771C487.651 160.771 485.367 161.542 483.499 162.966C481.631 164.389 480.282 166.387 479.659 168.651C479.036 170.916 479.174 173.322 480.051 175.501C480.777 177.305 481.977 178.869 483.514 180.036C480.002 181.463 477.012 184.047 475.008 187.512C474.857 187.774 474.777 188.072 474.776 188.374C474.776 188.677 474.856 188.974 475.007 189.236C475.158 189.499 475.376 189.717 475.638 189.868C475.9 190.02 476.197 190.099 476.499 190.1H503.5C503.803 190.1 504.1 190.02 504.362 189.869C504.625 189.718 504.843 189.5 504.994 189.237V189.236C505.145 188.974 505.225 188.677 505.225 188.374C505.224 188.071 505.144 187.774 504.992 187.512C502.988 184.046 499.996 181.463 496.484 180.036C498.022 178.869 499.223 177.305 499.949 175.501C500.826 173.322 500.964 170.916 500.341 168.651C499.718 166.387 498.368 164.389 496.5 162.966C494.632 161.542 492.349 160.772 490 160.771ZM483.863 163.442C483.961 163.368 484.06 163.296 484.16 163.226L483.863 163.442Z" fill="url(#paint3_linear_1_981)"/>
<mask id="mask3_1_981" style="mask-type:luminance" maskUnits="userSpaceOnUse" x="459" y="145" width="62" height="62">
<path d="M521 145H459V207H521V145Z" fill="white"/>
<path d="M502 146C511.941 146 520 154.059 520 164V188C520 197.941 511.941 206 502 206H478C468.059 206 460 197.941 460 188V164C460 154.059 468.059 146 478 146H502ZM490 160.771C487.651 160.771 485.367 161.542 483.499 162.966C481.631 164.389 480.282 166.387 479.659 168.651C479.036 170.916 479.174 173.322 480.051 175.501C480.777 177.305 481.977 178.869 483.514 180.036C480.002 181.463 477.012 184.047 475.008 187.512C474.857 187.774 474.777 188.072 474.776 188.374C474.776 188.677 474.856 188.974 475.007 189.236C475.158 189.499 475.376 189.717 475.638 189.868C475.9 190.02 476.197 190.099 476.499 190.1H503.5C503.803 190.1 504.1 190.02 504.362 189.869C504.625 189.718 504.843 189.5 504.994 189.237V189.236C505.145 188.974 505.225 188.677 505.225 188.374C505.224 188.071 505.144 187.774 504.992 187.512C502.988 184.046 499.996 181.463 496.484 180.036C498.022 178.869 499.223 177.305 499.949 175.501C500.826 173.322 500.964 170.916 500.341 168.651C499.718 166.387 498.368 164.389 496.5 162.966C494.632 161.542 492.349 160.772 490 160.771ZM483.863 163.442C483.961 163.368 484.06 163.296 484.16 163.226L483.863 163.442Z" fill="black"/>
</mask>
<g mask="url(#mask3_1_981)">
<path d="M483.514 180.036L483.74 180.592L484.715 180.195L483.877 179.558L483.514 180.036ZM475.008 187.512L474.488 187.211V187.212L475.008 187.512ZM476.499 190.1L476.498 190.7H476.499V190.1ZM504.994 189.237L505.514 189.537L505.594 189.398V189.237H504.994ZM504.994 189.236L504.474 188.937L504.394 189.076V189.236H504.994ZM496.484 180.036L496.122 179.558L495.282 180.195L496.259 180.592L496.484 180.036ZM483.863 163.442L483.5 162.965L484.217 163.927L483.863 163.442ZM484.16 163.226L484.514 163.71L483.814 162.736L484.16 163.226ZM484.256 163.159L483.915 162.665L484.596 163.653L484.256 163.159ZM484.484 163.006L484.812 163.509L484.157 162.503L484.484 163.006ZM484.577 162.945L484.255 162.439L484.899 163.452L484.577 162.945ZM484.895 162.752L485.197 163.27L484.592 162.234L484.895 162.752ZM502 146V146.6C511.61 146.6 519.4 154.39 519.4 164H520H520.6C520.6 153.728 512.272 145.4 502 145.4V146ZM520 164H519.4V188H520H520.6V164H520ZM520 188H519.4C519.4 197.61 511.61 205.4 502 205.4V206V206.6C512.272 206.6 520.6 198.272 520.6 188H520ZM502 206V205.4H478V206V206.6H502V206ZM478 206V205.4C468.39 205.4 460.6 197.61 460.6 188H460H459.4C459.4 198.272 467.728 206.6 478 206.6V206ZM460 188H460.6V164H460H459.4V188H460ZM460 164H460.6C460.6 154.39 468.39 146.6 478 146.6V146V145.4C467.728 145.4 459.4 153.728 459.4 164H460ZM478 146V146.6H502V146V145.4H478V146ZM490 160.771V160.171C487.52 160.171 485.108 160.985 483.135 162.489L483.499 162.966L483.863 163.442C485.626 162.098 487.783 161.371 490 161.371V160.771ZM483.499 162.966L483.135 162.489C481.163 163.992 479.739 166.101 479.081 168.492L479.659 168.651L480.238 168.811C480.826 166.673 482.099 164.786 483.863 163.442L483.499 162.966ZM479.659 168.651L479.081 168.492C478.423 170.883 478.568 173.424 479.494 175.725L480.051 175.501L480.607 175.277C479.779 173.22 479.65 170.948 480.238 168.811L479.659 168.651ZM480.051 175.501L479.494 175.725C480.261 177.63 481.528 179.282 483.151 180.514L483.514 180.036L483.877 179.558C482.426 178.456 481.293 176.98 480.607 175.277L480.051 175.501ZM483.514 180.036L483.288 179.48C479.651 180.958 476.558 183.633 474.488 187.211L475.008 187.512L475.527 187.812C477.466 184.461 480.354 181.968 483.74 180.592L483.514 180.036ZM475.008 187.512L474.488 187.212C474.284 187.565 474.177 187.966 474.176 188.374H474.776H475.376C475.376 188.177 475.429 187.983 475.527 187.812L475.008 187.512ZM474.776 188.374H474.176C474.176 188.781 474.283 189.182 474.487 189.536L475.007 189.236L475.527 188.937C475.428 188.766 475.376 188.572 475.376 188.374H474.776ZM475.007 189.236L474.487 189.536C474.691 189.889 474.984 190.183 475.337 190.388L475.638 189.868L475.938 189.349C475.767 189.25 475.625 189.108 475.527 188.937L475.007 189.236ZM475.638 189.868L475.337 190.388C475.691 190.592 476.091 190.699 476.498 190.7L476.499 190.1L476.5 189.5C476.302 189.499 476.109 189.447 475.938 189.349L475.638 189.868ZM476.499 190.1V190.7H503.5V190.1V189.5H476.499V190.1ZM503.5 190.1V190.7C503.907 190.7 504.308 190.593 504.662 190.389L504.362 189.869L504.062 189.349C503.892 189.448 503.698 189.5 503.5 189.5V190.1ZM504.362 189.869L504.662 190.389C505.016 190.185 505.31 189.891 505.514 189.537L504.994 189.237L504.475 188.937C504.376 189.108 504.233 189.251 504.062 189.349L504.362 189.869ZM504.994 189.237H505.594V189.236H504.994H504.394V189.237H504.994ZM504.994 189.236L505.514 189.536C505.717 189.183 505.825 188.782 505.825 188.373L505.225 188.374L504.625 188.375C504.625 188.571 504.573 188.765 504.474 188.937L504.994 189.236ZM505.225 188.374L505.825 188.373C505.824 187.965 505.716 187.564 505.511 187.211L504.992 187.512L504.473 187.812C504.572 187.984 504.624 188.178 504.625 188.375L505.225 188.374ZM504.992 187.512L505.512 187.211C503.441 183.632 500.348 180.958 496.71 179.48L496.484 180.036L496.259 180.592C499.645 181.968 502.534 184.46 504.473 187.812L504.992 187.512ZM496.484 180.036L496.847 180.514C498.47 179.282 499.739 177.631 500.506 175.725L499.949 175.501L499.393 175.277C498.707 176.98 497.573 178.456 496.122 179.558L496.484 180.036ZM499.949 175.501L500.506 175.725C501.432 173.424 501.577 170.883 500.919 168.492L500.341 168.651L499.762 168.811C500.35 170.948 500.221 173.22 499.393 175.277L499.949 175.501ZM500.341 168.651L500.919 168.492C500.261 166.101 498.836 163.992 496.864 162.489L496.5 162.966L496.136 163.443C497.9 164.787 499.174 166.673 499.762 168.811L500.341 168.651ZM496.5 162.966L496.864 162.489C494.891 160.985 492.48 160.172 490 160.171V160.771V161.371C492.217 161.372 494.373 162.099 496.136 163.443L496.5 162.966ZM483.863 163.442L484.227 163.92C484.317 163.851 484.41 163.784 484.506 163.716L484.16 163.226L483.814 162.736C483.711 162.809 483.605 162.885 483.5 162.965L483.863 163.442ZM484.16 163.226L483.806 162.741L483.509 162.958L483.863 163.442L484.217 163.927L484.514 163.71L484.16 163.226ZM484.256 163.159L484.596 163.653C484.669 163.603 484.74 163.555 484.811 163.509L484.484 163.006L484.157 162.503C484.075 162.556 483.994 162.611 483.915 162.665L484.256 163.159ZM484.484 163.006L484.157 162.503C484.075 162.556 483.995 162.61 483.915 162.665L484.256 163.159L484.596 163.653C484.668 163.604 484.74 163.555 484.812 163.509L484.484 163.006ZM484.577 162.945L484.899 163.452C484.997 163.389 485.097 163.329 485.197 163.27L484.895 162.752L484.592 162.234C484.478 162.3 484.366 162.368 484.256 162.439L484.577 162.945ZM484.895 162.752L484.592 162.234C484.479 162.3 484.366 162.368 484.255 162.439L484.577 162.945L484.899 163.452C484.997 163.389 485.097 163.329 485.197 163.27L484.895 162.752Z" fill="white" fill-opacity="0.7"/>
</g>
<path d="M218 268C227.941 268 236 276.059 236 286V310C236 319.941 227.941 328 218 328H194C184.059 328 176 319.941 176 310V286C176 276.059 184.059 268 194 268H218ZM206 282.771C203.651 282.771 201.367 283.542 199.499 284.966C197.631 286.389 196.282 288.387 195.659 290.651C195.036 292.916 195.174 295.322 196.051 297.501C196.777 299.305 197.977 300.869 199.514 302.036C196.002 303.463 193.012 306.047 191.008 309.512C190.857 309.774 190.777 310.072 190.776 310.374C190.776 310.677 190.856 310.974 191.007 311.236C191.158 311.499 191.376 311.717 191.638 311.868C191.9 312.02 192.197 312.099 192.499 312.1H219.5C219.803 312.1 220.1 312.02 220.362 311.869C220.625 311.718 220.843 311.5 220.994 311.237V311.236C221.145 310.974 221.225 310.677 221.225 310.374C221.224 310.071 221.144 309.774 220.992 309.512C218.988 306.046 215.996 303.463 212.484 302.036C214.022 300.869 215.223 299.305 215.949 297.501C216.826 295.322 216.964 292.916 216.341 290.651C215.718 288.387 214.368 286.389 212.5 284.966C210.632 283.542 208.349 282.772 206 282.771ZM199.863 285.442C199.961 285.368 200.06 285.296 200.16 285.226L199.863 285.442Z" fill="url(#paint4_linear_1_981)"/>
<mask id="mask4_1_981" style="mask-type:luminance" maskUnits="userSpaceOnUse" x="175" y="267" width="62" height="62">
<path d="M237 267H175V329H237V267Z" fill="white"/>
<path d="M218 268C227.941 268 236 276.059 236 286V310C236 319.941 227.941 328 218 328H194C184.059 328 176 319.941 176 310V286C176 276.059 184.059 268 194 268H218ZM206 282.771C203.651 282.771 201.367 283.542 199.499 284.966C197.631 286.389 196.282 288.387 195.659 290.651C195.036 292.916 195.174 295.322 196.051 297.501C196.777 299.305 197.977 300.869 199.514 302.036C196.002 303.463 193.012 306.047 191.008 309.512C190.857 309.774 190.777 310.072 190.776 310.374C190.776 310.677 190.856 310.974 191.007 311.236C191.158 311.499 191.376 311.717 191.638 311.868C191.9 312.02 192.197 312.099 192.499 312.1H219.5C219.803 312.1 220.1 312.02 220.362 311.869C220.625 311.718 220.843 311.5 220.994 311.237V311.236C221.145 310.974 221.225 310.677 221.225 310.374C221.224 310.071 221.144 309.774 220.992 309.512C218.988 306.046 215.996 303.463 212.484 302.036C214.022 300.869 215.223 299.305 215.949 297.501C216.826 295.322 216.964 292.916 216.341 290.651C215.718 288.387 214.368 286.389 212.5 284.966C210.632 283.542 208.349 282.772 206 282.771ZM199.863 285.442C199.961 285.368 200.06 285.296 200.16 285.226L199.863 285.442Z" fill="black"/>
</mask>
<g mask="url(#mask4_1_981)">
<path d="M199.514 302.036L199.74 302.592L200.715 302.195L199.877 301.558L199.514 302.036ZM191.008 309.512L190.488 309.211V309.212L191.008 309.512ZM220.994 311.237L221.514 311.537L221.594 311.398V311.237H220.994ZM220.994 311.236L220.474 310.937L220.394 311.076V311.236H220.994ZM212.484 302.036L212.122 301.558L211.282 302.195L212.259 302.592L212.484 302.036ZM199.863 285.442L199.5 284.965L200.217 285.927L199.863 285.442ZM200.16 285.226L200.514 285.71L199.814 284.736L200.16 285.226ZM200.256 285.159L199.915 284.665L200.596 285.653L200.256 285.159ZM200.484 285.006L200.812 285.509L200.157 284.503L200.484 285.006ZM200.577 284.945L200.255 284.439L200.899 285.452L200.577 284.945ZM200.895 284.752L201.197 285.27L200.592 284.234L200.895 284.752ZM218 268V268.6C227.61 268.6 235.4 276.39 235.4 286H236H236.6C236.6 275.728 228.272 267.4 218 267.4V268ZM236 286H235.4V310H236H236.6V286H236ZM236 310H235.4C235.4 319.61 227.61 327.4 218 327.4V328V328.6C228.272 328.6 236.6 320.272 236.6 310H236ZM218 328V327.4H194V328V328.6H218V328ZM194 328V327.4C184.39 327.4 176.6 319.61 176.6 310H176H175.4C175.4 320.272 183.728 328.6 194 328.6V328ZM176 310H176.6V286H176H175.4V310H176ZM176 286H176.6C176.6 276.39 184.39 268.6 194 268.6V268V267.4C183.728 267.4 175.4 275.728 175.4 286H176ZM194 268V268.6H218V268V267.4H194V268ZM206 282.771V282.171C203.52 282.171 201.108 282.985 199.135 284.489L199.499 284.966L199.863 285.443C201.626 284.099 203.783 283.371 206 283.371V282.771ZM199.499 284.966L199.135 284.489C197.163 285.992 195.739 288.101 195.081 290.492L195.659 290.651L196.238 290.811C196.826 288.673 198.099 286.787 199.863 285.443L199.499 284.966ZM195.659 290.651L195.081 290.492C194.423 292.883 194.568 295.424 195.494 297.725L196.051 297.501L196.607 297.277C195.779 295.22 195.65 292.948 196.238 290.811L195.659 290.651ZM196.051 297.501L195.494 297.725C196.261 299.63 197.528 301.282 199.151 302.514L199.514 302.036L199.877 301.558C198.426 300.456 197.293 298.98 196.607 297.277L196.051 297.501ZM199.514 302.036L199.288 301.48C195.651 302.958 192.558 305.633 190.488 309.211L191.008 309.512L191.527 309.812C193.466 306.461 196.354 303.968 199.74 302.592L199.514 302.036ZM191.008 309.512L190.488 309.212C190.284 309.565 190.177 309.966 190.176 310.374H190.776H191.376C191.376 310.177 191.429 309.983 191.527 309.812L191.008 309.512ZM190.776 310.374H190.176C190.176 310.781 190.283 311.182 190.487 311.536L191.007 311.236L191.527 310.937C191.428 310.766 191.376 310.572 191.376 310.374H190.776ZM191.007 311.236L190.487 311.536C190.691 311.889 190.984 312.183 191.337 312.388L191.638 311.868L191.938 311.349C191.767 311.25 191.625 311.108 191.527 310.937L191.007 311.236ZM191.638 311.868L191.337 312.388C191.691 312.592 192.091 312.699 192.498 312.7L192.499 312.1L192.5 311.5C192.302 311.499 192.109 311.447 191.938 311.349L191.638 311.868ZM192.499 312.1L192.498 312.7H219.5V312.1V311.5H192.499V312.1ZM219.5 312.1V312.7C219.907 312.7 220.308 312.593 220.662 312.389L220.362 311.869L220.062 311.349C219.892 311.448 219.698 311.5 219.5 311.5V312.1ZM220.362 311.869L220.662 312.389C221.016 312.185 221.31 311.891 221.514 311.537L220.994 311.237L220.475 310.937C220.376 311.108 220.233 311.251 220.062 311.349L220.362 311.869ZM220.994 311.237H221.594V311.236H220.994H220.394V311.237H220.994ZM220.994 311.236L221.514 311.537C221.717 311.184 221.825 310.782 221.825 310.373L221.225 310.374L220.625 310.375C220.625 310.571 220.573 310.765 220.474 310.937L220.994 311.236ZM221.225 310.374L221.825 310.373C221.824 309.965 221.716 309.564 221.511 309.211L220.992 309.512L220.473 309.812C220.572 309.984 220.624 310.178 220.625 310.375L221.225 310.374ZM220.992 309.512L221.511 309.211C219.44 305.632 216.348 302.958 212.71 301.48L212.484 302.036L212.259 302.592C215.645 303.968 218.534 306.46 220.473 309.812L220.992 309.512ZM212.484 302.036L212.847 302.514C214.47 301.282 215.739 299.631 216.506 297.725L215.949 297.501L215.393 297.277C214.707 298.98 213.573 300.456 212.122 301.558L212.484 302.036ZM215.949 297.501L216.506 297.725C217.432 295.424 217.577 292.883 216.919 290.492L216.341 290.651L215.762 290.811C216.35 292.948 216.221 295.22 215.393 297.277L215.949 297.501ZM216.341 290.651L216.919 290.492C216.261 288.101 214.836 285.992 212.864 284.489L212.5 284.966L212.136 285.443C213.9 286.787 215.174 288.673 215.762 290.811L216.341 290.651ZM212.5 284.966L212.864 284.489C210.891 282.985 208.48 282.172 206 282.171V282.771V283.371C208.217 283.372 210.373 284.099 212.136 285.443L212.5 284.966ZM199.863 285.442L200.227 285.92C200.317 285.851 200.41 285.784 200.506 285.716L200.16 285.226L199.814 284.736C199.711 284.809 199.605 284.885 199.5 284.965L199.863 285.442ZM200.16 285.226L199.806 284.741L199.509 284.958L199.863 285.442L200.217 285.927L200.514 285.71L200.16 285.226ZM200.256 285.159L200.596 285.653C200.669 285.603 200.741 285.555 200.812 285.509L200.484 285.006L200.157 284.503C200.075 284.556 199.994 284.611 199.915 284.665L200.256 285.159ZM200.484 285.006L200.157 284.503C200.075 284.556 199.995 284.61 199.915 284.665L200.256 285.159L200.596 285.653C200.668 285.604 200.74 285.555 200.812 285.509L200.484 285.006ZM200.577 284.945L200.899 285.452C200.997 285.389 201.097 285.329 201.197 285.27L200.895 284.752L200.592 284.234C200.478 284.3 200.365 284.368 200.255 284.439L200.577 284.945ZM200.895 284.752L200.592 284.234C200.479 284.3 200.366 284.368 200.255 284.439L200.577 284.945L200.899 285.452C200.997 285.389 201.097 285.329 201.197 285.27L200.895 284.752Z" fill="white" fill-opacity="0.7"/>
</g>
<path d="M422 268C431.941 268 440 276.059 440 286V310C440 319.941 431.941 328 422 328H398C388.059 328 380 319.941 380 310V286C380 276.059 388.059 268 398 268H422ZM410 282.771C407.651 282.771 405.367 283.542 403.499 284.966C401.631 286.389 400.282 288.387 399.659 290.651C399.036 292.916 399.174 295.322 400.051 297.501C400.777 299.305 401.977 300.869 403.514 302.036C400.002 303.463 397.012 306.047 395.008 309.512C394.857 309.774 394.777 310.072 394.776 310.374C394.776 310.677 394.856 310.974 395.007 311.236C395.158 311.499 395.376 311.717 395.638 311.868C395.9 312.02 396.197 312.099 396.499 312.1H423.5C423.803 312.1 424.1 312.02 424.362 311.869C424.625 311.718 424.843 311.5 424.994 311.237V311.236C425.145 310.974 425.225 310.677 425.225 310.374C425.224 310.071 425.144 309.774 424.992 309.512C422.988 306.046 419.996 303.463 416.484 302.036C418.022 300.869 419.223 299.305 419.949 297.501C420.826 295.322 420.964 292.916 420.341 290.651C419.718 288.387 418.368 286.389 416.5 284.966C414.632 283.542 412.349 282.772 410 282.771ZM403.863 285.442C403.961 285.368 404.06 285.296 404.16 285.226L403.863 285.442Z" fill="url(#paint5_linear_1_981)"/>
<mask id="mask5_1_981" style="mask-type:luminance" maskUnits="userSpaceOnUse" x="379" y="267" width="62" height="62">
<path d="M441 267H379V329H441V267Z" fill="white"/>
<path d="M422 268C431.941 268 440 276.059 440 286V310C440 319.941 431.941 328 422 328H398C388.059 328 380 319.941 380 310V286C380 276.059 388.059 268 398 268H422ZM410 282.771C407.651 282.771 405.367 283.542 403.499 284.966C401.631 286.389 400.282 288.387 399.659 290.651C399.036 292.916 399.174 295.322 400.051 297.501C400.777 299.305 401.977 300.869 403.514 302.036C400.002 303.463 397.012 306.047 395.008 309.512C394.857 309.774 394.777 310.072 394.776 310.374C394.776 310.677 394.856 310.974 395.007 311.236C395.158 311.499 395.376 311.717 395.638 311.868C395.9 312.02 396.197 312.099 396.499 312.1H423.5C423.803 312.1 424.1 312.02 424.362 311.869C424.625 311.718 424.843 311.5 424.994 311.237V311.236C425.145 310.974 425.225 310.677 425.225 310.374C425.224 310.071 425.144 309.774 424.992 309.512C422.988 306.046 419.996 303.463 416.484 302.036C418.022 300.869 419.223 299.305 419.949 297.501C420.826 295.322 420.964 292.916 420.341 290.651C419.718 288.387 418.368 286.389 416.5 284.966C414.632 283.542 412.349 282.772 410 282.771ZM403.863 285.442C403.961 285.368 404.06 285.296 404.16 285.226L403.863 285.442Z" fill="black"/>
</mask>
<g mask="url(#mask5_1_981)">
<path d="M403.514 302.036L403.74 302.592L404.715 302.195L403.877 301.558L403.514 302.036ZM395.008 309.512L394.488 309.211V309.212L395.008 309.512ZM396.499 312.1L396.498 312.7H396.499V312.1ZM424.994 311.237L425.514 311.537L425.594 311.398V311.237H424.994ZM424.994 311.236L424.474 310.937L424.394 311.076V311.236H424.994ZM416.484 302.036L416.122 301.558L415.282 302.195L416.259 302.592L416.484 302.036ZM403.863 285.442L403.5 284.965L404.217 285.927L403.863 285.442ZM404.16 285.226L404.514 285.71L403.814 284.736L404.16 285.226ZM404.256 285.159L403.915 284.665L404.596 285.653L404.256 285.159ZM404.484 285.006L404.812 285.509L404.157 284.503L404.484 285.006ZM404.577 284.945L404.255 284.439L404.899 285.452L404.577 284.945ZM404.895 284.752L405.197 285.27L404.592 284.234L404.895 284.752ZM422 268V268.6C431.61 268.6 439.4 276.39 439.4 286H440H440.6C440.6 275.728 432.272 267.4 422 267.4V268ZM440 286H439.4V310H440H440.6V286H440ZM440 310H439.4C439.4 319.61 431.61 327.4 422 327.4V328V328.6C432.272 328.6 440.6 320.272 440.6 310H440ZM422 328V327.4H398V328V328.6H422V328ZM398 328V327.4C388.39 327.4 380.6 319.61 380.6 310H380H379.4C379.4 320.272 387.728 328.6 398 328.6V328ZM380 310H380.6V286H380H379.4V310H380ZM380 286H380.6C380.6 276.39 388.39 268.6 398 268.6V268V267.4C387.728 267.4 379.4 275.728 379.4 286H380ZM398 268V268.6H422V268V267.4H398V268ZM410 282.771V282.171C407.52 282.171 405.108 282.985 403.135 284.489L403.499 284.966L403.863 285.443C405.626 284.099 407.783 283.371 410 283.371V282.771ZM403.499 284.966L403.135 284.489C401.163 285.992 399.739 288.101 399.081 290.492L399.659 290.651L400.238 290.811C400.826 288.673 402.099 286.787 403.863 285.443L403.499 284.966ZM399.659 290.651L399.081 290.492C398.423 292.883 398.568 295.424 399.494 297.725L400.051 297.501L400.607 297.277C399.779 295.22 399.65 292.948 400.238 290.811L399.659 290.651ZM400.051 297.501L399.494 297.725C400.261 299.63 401.528 301.282 403.151 302.514L403.514 302.036L403.877 301.558C402.426 300.456 401.293 298.98 400.607 297.277L400.051 297.501ZM403.514 302.036L403.288 301.48C399.651 302.958 396.558 305.633 394.488 309.211L395.008 309.512L395.527 309.812C397.466 306.461 400.354 303.968 403.74 302.592L403.514 302.036ZM395.008 309.512L394.488 309.212C394.284 309.565 394.177 309.966 394.176 310.374H394.776H395.376C395.376 310.177 395.429 309.983 395.527 309.812L395.008 309.512ZM394.776 310.374H394.176C394.176 310.781 394.283 311.182 394.487 311.536L395.007 311.236L395.527 310.937C395.428 310.766 395.376 310.572 395.376 310.374H394.776ZM395.007 311.236L394.487 311.536C394.691 311.889 394.984 312.183 395.337 312.388L395.638 311.868L395.938 311.349C395.767 311.25 395.625 311.108 395.527 310.937L395.007 311.236ZM395.638 311.868L395.337 312.388C395.691 312.592 396.091 312.699 396.498 312.7L396.499 312.1L396.5 311.5C396.302 311.499 396.109 311.447 395.938 311.349L395.638 311.868ZM396.499 312.1V312.7H423.5V312.1V311.5H396.499V312.1ZM423.5 312.1V312.7C423.907 312.7 424.308 312.593 424.662 312.389L424.362 311.869L424.062 311.349C423.892 311.448 423.698 311.5 423.5 311.5V312.1ZM424.362 311.869L424.662 312.389C425.016 312.185 425.31 311.891 425.514 311.537L424.994 311.237L424.475 310.937C424.376 311.108 424.233 311.251 424.062 311.349L424.362 311.869ZM424.994 311.237H425.594V311.236H424.994H424.394V311.237H424.994ZM424.994 311.236L425.514 311.537C425.717 311.184 425.825 310.782 425.825 310.373L425.225 310.374L424.625 310.375C424.625 310.571 424.573 310.765 424.474 310.937L424.994 311.236ZM425.225 310.374L425.825 310.373C425.824 309.965 425.716 309.564 425.511 309.211L424.992 309.512L424.473 309.812C424.572 309.984 424.624 310.178 424.625 310.375L425.225 310.374ZM424.992 309.512L425.512 309.211C423.441 305.632 420.348 302.958 416.71 301.48L416.484 302.036L416.259 302.592C419.645 303.968 422.534 306.46 424.473 309.812L424.992 309.512ZM416.484 302.036L416.847 302.514C418.47 301.282 419.739 299.631 420.506 297.725L419.949 297.501L419.393 297.277C418.707 298.98 417.573 300.456 416.122 301.558L416.484 302.036ZM419.949 297.501L420.506 297.725C421.432 295.424 421.577 292.883 420.919 290.492L420.341 290.651L419.762 290.811C420.35 292.948 420.221 295.22 419.393 297.277L419.949 297.501ZM420.341 290.651L420.919 290.492C420.261 288.101 418.836 285.992 416.864 284.489L416.5 284.966L416.136 285.443C417.9 286.787 419.174 288.673 419.762 290.811L420.341 290.651ZM416.5 284.966L416.864 284.489C414.891 282.985 412.48 282.172 410 282.171V282.771V283.371C412.217 283.372 414.373 284.099 416.136 285.443L416.5 284.966ZM403.863 285.442L404.227 285.92C404.317 285.851 404.41 285.784 404.506 285.716L404.16 285.226L403.814 284.736C403.711 284.809 403.605 284.885 403.5 284.965L403.863 285.442ZM404.16 285.226L403.806 284.741L403.509 284.958L403.863 285.442L404.217 285.927L404.514 285.71L404.16 285.226ZM404.256 285.159L404.596 285.653C404.669 285.603 404.74 285.555 404.811 285.509L404.484 285.006L404.157 284.503C404.075 284.556 403.994 284.611 403.915 284.665L404.256 285.159ZM404.484 285.006L404.157 284.503C404.075 284.556 403.995 284.61 403.915 284.665L404.256 285.159L404.596 285.653C404.668 285.604 404.74 285.555 404.812 285.509L404.484 285.006ZM404.577 284.945L404.899 285.452C404.997 285.389 405.097 285.329 405.197 285.27L404.895 284.752L404.592 284.234C404.478 284.3 404.366 284.368 404.256 284.439L404.577 284.945ZM404.895 284.752L404.592 284.234C404.479 284.3 404.366 284.368 404.255 284.439L404.577 284.945L404.899 285.452C404.997 285.389 405.097 285.329 405.197 285.27L404.895 284.752Z" fill="white" fill-opacity="0.7"/>
</g>
<defs>
<filter id="filter0_d_1_981" x="228" y="95.999" width="160" height="160" filterUnits="userSpaceOnUse" color-interpolation-filters="sRGB">
<feFlood flood-opacity="0" result="BackgroundImageFix"/>
<feColorMatrix in="SourceAlpha" type="matrix" values="0 0 0 0 0 0 0 0 0 0 0 0 0 0 0 0 0 0 127 0" result="hardAlpha"/>
<feOffset/>
<feGaussianBlur stdDeviation="12"/>
<feComposite in2="hardAlpha" operator="out"/>
<feColorMatrix type="matrix" values="0 0 0 0 0.0588235 0 0 0 0 0.0588235 0 0 0 0 0.0588235 0 0 0 0.06 0"/>
<feBlend mode="normal" in2="BackgroundImageFix" result="effect1_dropShadow_1_981"/>
<feBlend mode="normal" in="SourceGraphic" in2="effect1_dropShadow_1_981" result="shape"/>
</filter>
<linearGradient id="paint0_linear_1_981" x1="176" y1="24" x2="236" y2="84" gradientUnits="userSpaceOnUse">
<stop stop-color="white" stop-opacity="0.08"/>
<stop offset="1" stop-color="white" stop-opacity="0.64"/>
</linearGradient>
<linearGradient id="paint1_linear_1_981" x1="440" y1="24" x2="380" y2="84" gradientUnits="userSpaceOnUse">
<stop stop-color="white" stop-opacity="0.08"/>
<stop offset="1" stop-color="white" stop-opacity="0.64"/>
</linearGradient>
<linearGradient id="paint2_linear_1_981" x1="96" y1="176" x2="156" y2="176" gradientUnits="userSpaceOnUse">
<stop stop-color="white" stop-opacity="0.08"/>
<stop offset="1" stop-color="white" stop-opacity="0.64"/>
</linearGradient>
<linearGradient id="paint3_linear_1_981" x1="460" y1="176" x2="520" y2="176" gradientUnits="userSpaceOnUse">
<stop stop-color="white" stop-opacity="0.64"/>
<stop offset="1" stop-color="white" stop-opacity="0.08"/>
</linearGradient>
<linearGradient id="paint4_linear_1_981" x1="176" y1="328" x2="236" y2="268" gradientUnits="userSpaceOnUse">
<stop stop-color="white" stop-opacity="0.08"/>
<stop offset="1" stop-color="white" stop-opacity="0.64"/>
</linearGradient>
<linearGradient id="paint5_linear_1_981" x1="440" y1="328" x2="380" y2="268" gradientUnits="userSpaceOnUse">
<stop stop-color="white" stop-opacity="0.08"/>
<stop offset="1" stop-color="white" stop-opacity="0.64"/>
</linearGradient>
</defs>
</svg>
